<?xml version="1.0" standalone="no"?>
<!DOCTYPE svg PUBLIC "-//W3C//DTD SVG 20010904//EN"
 "http://www.w3.org/TR/2001/REC-SVG-20010904/DTD/svg10.dtd">
<svg version="1.0" xmlns="http://www.w3.org/2000/svg"
 width="460.000000pt" height="460.000000pt" viewBox="0 0 460.000000 460.000000"
 preserveAspectRatio="xMidYMid meet">
<metadata>
Created by potrace 1.14, written by Peter Selinger 2001-2017
</metadata>
<g transform="translate(0.000000,460.000000) scale(0.100000,-0.100000)"
fill="#000000" stroke="none">
<path d="M2184 4435 c-5 -13 -9 -14 -15 -3 -8 11 -11 11 -18 -1 -5 -8 -14 -10
-21 -6 -9 5 -11 4 -6 -3 6 -10 -6 -14 -39 -12 -3 1 -13 -6 -22 -15 -8 -9 -22
-14 -30 -11 -7 3 -16 0 -19 -8 -3 -7 -16 -12 -30 -10 -15 1 -22 -2 -17 -9 4
-6 0 -8 -10 -4 -8 3 -18 0 -21 -8 -3 -8 -13 -14 -23 -15 -54 -2 -71 -6 -65
-14 3 -5 -2 -7 -11 -3 -10 4 -17 1 -17 -5 0 -6 -3 -8 -7 -5 -3 4 -12 2 -20 -5
-7 -6 -16 -8 -20 -5 -3 3 -20 -1 -37 -10 -17 -10 -35 -16 -39 -15 -11 3 -128
-38 -144 -51 -7 -5 -13 -6 -13 -2 0 4 -6 2 -14 -4 -8 -6 -18 -11 -22 -9 -9 3
-135 -59 -144 -71 -3 -3 -20 -14 -39 -25 -45 -25 -92 -72 -126 -126 -15 -25
-39 -55 -52 -67 -12 -12 -23 -24 -23 -27 0 -3 -13 -19 -30 -37 -16 -18 -27
-36 -25 -40 3 -4 -2 -10 -11 -13 -9 -4 -14 -9 -11 -13 4 -3 2 -12 -4 -20 -6
-7 -8 -13 -5 -13 4 0 2 -9 -4 -20 -7 -14 -7 -20 0 -20 5 0 1 -10 -10 -22 -38
-42 -46 -53 -74 -108 -16 -30 -34 -59 -41 -65 -6 -5 -10 -15 -8 -21 2 -7 -3
-18 -11 -27 -8 -8 -12 -17 -9 -21 4 -3 1 -6 -5 -6 -7 0 -11 -3 -10 -7 1 -5 -4
-28 -11 -53 -15 -51 -19 -71 -27 -120 -3 -19 -7 -41 -9 -47 -2 -7 0 -13 6 -13
6 0 7 -5 3 -12 -9 -14 -14 -51 -17 -120 -1 -27 -4 -48 -7 -48 -3 0 -6 -63 -6
-140 -1 -77 3 -140 8 -140 5 0 6 -4 3 -10 -3 -5 -1 -19 6 -31 6 -12 7 -19 1
-15 -6 4 -8 -2 -5 -14 3 -11 9 -20 14 -20 5 0 9 -7 9 -15 0 -9 9 -34 20 -55
11 -22 18 -40 14 -40 -4 0 -1 -7 6 -15 7 -8 9 -15 5 -15 -4 0 -1 -7 6 -17 8
-9 13 -17 11 -17 -4 -1 12 -46 27 -81 29 -65 41 -123 27 -129 -8 -3 -7 -5 1
-5 7 -1 10 -7 7 -14 -5 -15 16 -37 38 -41 23 -3 78 -47 78 -62 0 -8 5 -14 11
-14 5 0 8 -4 5 -9 -3 -4 6 -21 19 -37 14 -16 25 -35 25 -41 0 -7 5 -13 12 -13
6 0 9 -3 5 -6 -3 -3 -2 -16 3 -29 5 -13 11 -43 15 -66 3 -24 10 -57 15 -74 4
-16 8 -37 9 -45 0 -28 43 -145 57 -156 8 -6 11 -14 7 -17 -3 -4 -1 -12 5 -19
6 -7 11 -17 13 -23 8 -32 24 -65 31 -65 4 0 8 -6 8 -14 0 -14 34 -107 52 -140
6 -12 6 -16 0 -12 -6 3 -12 2 -14 -4 -1 -5 -14 -11 -28 -14 -14 -2 -26 -5 -27
-7 -2 -1 -7 -3 -13 -4 -5 -1 -12 -4 -15 -5 -9 -5 -100 -22 -110 -21 -2 0 -25
-8 -50 -19 -25 -11 -45 -17 -45 -13 0 3 -11 -2 -25 -11 -18 -12 -25 -13 -25
-4 0 9 -3 9 -8 2 -8 -12 -54 -15 -277 -19 -88 -1 -173 -6 -190 -9 -91 -20
-229 -58 -245 -66 -9 -5 -20 -6 -24 -3 -3 3 -6 1 -6 -5 0 -6 -17 -16 -37 -23
-21 -6 -43 -15 -49 -20 -6 -5 -14 -6 -17 -2 -4 3 -7 2 -7 -4 0 -10 -19 -19
-58 -28 -7 -2 -20 -9 -29 -16 -8 -7 -25 -18 -37 -24 l-21 -11 -3 -517 -2 -517
2300 0 2300 0 0 505 c0 278 -3 505 -7 506 -5 0 -15 2 -23 4 -8 2 -33 6 -55 10
-22 4 -45 11 -51 16 -7 5 -16 9 -20 7 -10 -2 -72 18 -124 40 -19 9 -37 16 -40
17 -14 4 -52 21 -115 50 -52 24 -130 52 -130 46 0 0 -18 5 -40 10 -22 6 -53
12 -70 14 -41 6 -58 10 -70 16 -5 3 -50 7 -100 8 -49 1 -94 5 -100 9 -5 3 -14
8 -20 9 -38 9 -85 29 -85 36 0 5 -4 6 -8 3 -4 -2 -39 2 -77 11 -39 8 -77 16
-85 18 -8 1 -26 5 -40 8 -14 4 -43 9 -65 11 -22 3 -41 5 -42 6 -5 1 11 125 22
170 3 14 8 35 11 48 2 12 7 34 10 50 3 15 7 50 9 77 4 60 21 109 35 100 5 -3
10 -1 10 4 0 6 6 11 13 11 18 0 97 80 109 110 21 54 21 58 17 226 -1 34 2 74
5 90 4 16 9 40 12 54 17 76 25 120 28 165 3 28 5 50 6 50 1 0 3 25 5 55 4 50
10 91 15 98 2 1 4 7 5 12 1 6 4 13 5 18 1 4 2 10 1 14 0 4 -3 31 -6 59 -3 28
-8 55 -11 60 -3 5 0 9 6 9 6 0 8 4 5 10 -11 19 -14 50 -4 50 6 0 8 4 5 9 -4 5
-8 35 -11 66 -3 31 -8 62 -12 68 -4 7 -8 18 -9 25 -2 8 -6 21 -10 30 -3 9 -8
30 -10 46 -3 17 -8 32 -12 35 -4 4 -8 17 -10 31 -2 14 -8 39 -13 56 -5 17 -12
42 -14 54 -3 13 -8 26 -13 29 -4 3 -8 13 -8 21 -1 18 -30 89 -61 148 -13 24
-23 50 -23 58 0 7 -7 14 -16 14 -8 0 -13 4 -9 9 3 5 -2 17 -11 25 -8 9 -12 16
-7 16 4 0 1 6 -7 13 -8 7 -23 29 -32 50 -10 20 -22 37 -28 37 -5 0 -10 5 -10
11 0 7 -9 20 -21 30 -11 10 -18 22 -15 28 4 5 -3 12 -14 16 -11 3 -20 12 -20
19 0 7 -18 29 -40 49 -22 19 -40 41 -40 47 0 6 -4 9 -8 6 -11 -6 -42 30 -34
39 4 4 2 5 -3 4 -16 -5 -55 11 -55 22 0 6 -6 17 -14 25 -11 11 -16 11 -19 1
-3 -7 -6 -5 -6 5 -1 12 -6 15 -18 11 -10 -3 -15 -3 -11 1 3 4 -1 16 -10 27 -9
11 -17 23 -18 27 0 4 -4 15 -9 25 -5 13 -11 15 -20 7 -11 -9 -12 -7 -8 9 3 13
-2 23 -17 31 -18 10 -21 9 -15 -1 5 -8 4 -10 -3 -5 -7 4 -12 14 -12 22 0 8 -9
14 -20 14 -11 0 -20 7 -20 16 0 8 -4 12 -10 9 -5 -3 -10 0 -10 8 0 15 -27 32
-43 28 -5 -1 -6 3 -3 8 6 9 -85 71 -103 71 -5 0 -11 5 -13 11 -2 5 -10 11 -19
12 -9 2 -28 11 -42 20 -15 10 -27 15 -27 13 0 -2 -24 4 -52 14 -29 10 -56 16
-60 14 -5 -3 -8 -2 -8 3 0 4 -23 9 -50 10 -29 1 -50 -3 -50 -9 0 -6 11 -8 25
-6 18 4 23 2 16 -6 -7 -8 -4 -12 10 -13 11 -1 17 2 14 7 -8 13 20 6 48 -13 15
-10 27 -14 27 -11 0 4 9 -1 19 -10 14 -13 21 -14 27 -5 5 9 10 7 20 -5 7 -10
17 -15 23 -11 6 3 11 1 11 -4 0 -6 7 -11 15 -11 8 0 15 -5 15 -11 0 -8 5 -8
15 1 11 9 15 9 15 1 0 -7 5 -9 10 -6 6 3 10 -1 10 -10 0 -9 4 -14 8 -11 5 3
21 -3 36 -13 24 -16 25 -19 11 -31 -13 -11 -15 -10 -9 6 5 18 5 18 -8 2 -14
-16 -16 -16 -33 0 -13 12 -16 13 -9 2 6 -12 5 -13 -7 -3 -9 7 -24 14 -35 16
-10 1 -25 6 -31 10 -7 5 -17 5 -23 2 -5 -3 -10 2 -10 12 0 14 -2 15 -9 4 -7
-11 -9 -11 -14 0 -4 11 -6 11 -6 1 -1 -10 -5 -10 -16 2 -9 8 -22 13 -30 9 -9
-3 -22 0 -29 6 -11 9 -15 9 -18 0 -3 -8 -9 -9 -18 -4 -28 18 -200 26 -200 10
0 -5 -4 -4 -9 4 -5 8 -6 21 -3 30 4 10 7 11 10 3 2 -7 8 -10 12 -7 5 3 6 13 3
23 -6 16 -6 16 11 -1 15 -15 36 -16 36 -1 0 3 -5 2 -12 -2 -7 -4 -8 -3 -4 5 6
9 11 9 24 -1 9 -7 13 -8 9 -2 -4 7 5 14 23 17 21 5 28 11 24 22 -5 12 -9 13
-20 4 -11 -9 -18 -8 -29 1 -12 10 -16 9 -21 -5z m-82 -60 c2 3 5 -2 5 -10 0
-9 -5 -14 -11 -12 -6 3 -19 0 -28 -4 -10 -6 -19 -5 -23 1 -5 8 -12 7 -23 -2
-15 -11 -15 -11 -5 3 7 9 9 20 5 25 -4 4 0 3 9 -4 13 -10 19 -9 29 3 9 11 16
12 25 5 6 -5 14 -8 17 -5z m728 -215 c0 -5 -5 -10 -11 -10 -5 0 -7 5 -4 10 3
6 8 10 11 10 2 0 4 -4 4 -10z m35 -40 c3 -5 1 -10 -4 -10 -6 0 -11 5 -11 10 0
6 2 10 4 10 3 0 8 -4 11 -10z m10 -30 c3 -6 -1 -7 -9 -4 -18 7 -21 14 -7 14 6
0 13 -4 16 -10z"/>
<path d="M2060 4365 c-11 -13 -10 -14 4 -9 9 3 16 10 16 15 0 13 -6 11 -20 -6z"/>
<path d="M2346 4405 c4 -8 11 -15 16 -15 6 0 5 6 -2 15 -7 8 -14 15 -16 15 -2
0 -1 -7 2 -15z"/>
</g>
</svg>
